<?xml version="1.0" standalone="no"?>
<!DOCTYPE svg PUBLIC "-//W3C//DTD SVG 20010904//EN"
 "http://www.w3.org/TR/2001/REC-SVG-20010904/DTD/svg10.dtd">
<svg version="1.0" xmlns="http://www.w3.org/2000/svg"
 width="560.000000pt" height="516.000000pt" viewBox="0 0 560.000000 516.000000"
 preserveAspectRatio="xMidYMid meet">
<metadata>
Created by potrace 1.16, written by Peter Selinger 2001-2019
</metadata>
<g transform="translate(0.000000,516.000000) scale(0.100000,-0.100000)"
fill="#000000" stroke="none">
<path d="M0 3330 l0 -1830 128 5 c204 9 810 25 926 25 l106 0 0 -34 c0 -19 -3
-37 -7 -39 -5 -3 -249 4 -543 14 -294 10 -552 18 -572 19 l-38 0 0 -745 0
-745 2800 0 2800 0 0 746 0 747 -137 -7 c-76 -3 -329 -10 -563 -16 -234 -6
-451 -12 -482 -14 l-58 -4 0 39 0 39 113 0 c104 0 795 -16 1025 -23 l102 -4 0
1829 0 1828 -1327 -1 c-731 -1 -1314 -4 -1298 -8 37 -9 65 -24 129 -68 46 -32
89 -42 100 -25 3 5 -2 21 -10 36 -21 42 -18 48 19 41 48 -11 87 -33 142 -83
62 -55 91 -70 107 -54 9 9 10 20 1 42 -6 17 -7 32 -2 35 19 12 98 -42 166
-113 60 -63 74 -74 86 -63 12 9 13 19 5 47 -5 20 -7 38 -4 41 14 14 103 -60
134 -110 38 -64 86 -112 101 -103 6 4 11 25 11 47 0 21 5 39 10 39 25 0 83
-72 123 -150 31 -63 47 -85 62 -85 14 0 21 9 26 33 4 18 9 36 13 39 18 18 76
-72 105 -165 18 -60 44 -102 62 -102 5 0 14 18 20 40 7 22 16 40 20 40 17 0
60 -82 70 -133 28 -146 38 -171 65 -160 8 3 18 19 22 36 12 45 25 43 51 -10
18 -36 24 -69 27 -141 4 -95 14 -132 39 -132 7 0 19 14 27 30 18 42 31 37 47
-16 10 -34 12 -75 7 -151 -8 -128 1 -149 46 -106 24 23 31 25 38 13 20 -33 21
-105 1 -180 -11 -41 -21 -85 -21 -98 0 -32 27 -39 54 -13 12 11 25 21 29 21 4
0 7 -31 7 -68 0 -49 -7 -86 -24 -128 -13 -32 -27 -74 -31 -91 -6 -28 -4 -33
12 -33 11 0 28 7 39 15 32 24 37 17 31 -43 -3 -42 -16 -80 -46 -136 -42 -79
-49 -110 -31 -121 6 -4 22 0 35 9 32 21 35 21 35 -11 0 -50 -20 -101 -59 -150
-47 -60 -61 -86 -61 -114 0 -22 17 -23 63 -4 13 5 17 2 17 -11 -1 -38 -40
-105 -99 -168 -79 -84 -80 -101 -8 -96 15 1 27 -2 27 -7 0 -23 -63 -114 -92
-131 -47 -30 -111 -98 -104 -111 4 -6 23 -11 42 -11 21 0 34 -5 34 -13 0 -19
-79 -92 -125 -115 -49 -25 -87 -60 -82 -75 2 -7 18 -13 35 -15 41 -4 41 -23 0
-54 -79 -60 -115 -71 -245 -76 -95 -3 -123 -2 -123 8 0 7 22 47 48 89 247 387
377 877 343 1297 -17 218 -74 456 -147 623 -22 49 -24 68 -25 215 0 97 -5 175
-12 196 -18 52 -61 70 -172 70 l-91 0 -74 76 c-229 232 -542 397 -901 476 -93
20 -131 23 -354 22 -233 0 -259 -2 -375 -26 -336 -72 -637 -224 -880 -443
l-82 -75 -119 0 c-71 0 -119 4 -119 10 0 5 21 21 48 35 63 33 82 49 82 69 0
11 -9 16 -29 16 -17 0 -32 4 -35 9 -11 17 61 68 132 95 100 39 134 86 61 86
-80 0 15 72 118 89 65 10 123 35 123 52 0 5 -17 17 -37 26 l-38 15 24 19 c30
24 84 39 146 40 57 0 117 18 123 36 2 7 -10 21 -27 30 -17 10 -31 21 -31 26 0
19 64 31 167 31 137 1 157 12 104 57 -19 16 -32 32 -28 36 10 9 147 8 228 -2
79 -9 94 3 55 44 -14 15 -26 30 -26 34 0 15 131 6 177 -12 76 -29 122 -35 129
-16 4 9 -2 25 -15 39 -11 12 -21 25 -21 29 0 4 27 7 59 7 47 0 74 -7 132 -35
110 -53 143 -44 102 26 l-17 29 -1448 0 -1448 0 0 -1830z m2671 -505 c-11 -25
-49 -76 -83 -112 -161 -168 -407 -300 -633 -338 -60 -10 -42 -1 78 39 268 89
480 231 607 405 24 33 46 59 48 56 2 -2 -6 -24 -17 -50z m-661 -611 c-98 -33
-336 -80 -480 -95 -199 -22 -844 -13 -799 11 8 4 138 13 289 19 420 19 794 49
975 80 87 15 92 10 15 -15z"/>
</g>
</svg>
